<?xml version="1.0" encoding="utf-8"?>
<!-- Generator: Adobe Illustrator 28.0.0, SVG Export Plug-In . SVG Version: 6.00 Build 0)  -->
<svg version="1.1" id="Layer_1" xmlns="http://www.w3.org/2000/svg" xmlns:xlink="http://www.w3.org/1999/xlink" x="0px" y="0px"
	 viewBox="0 0 648 216" style="enable-background:new 0 0 648 216;" xml:space="preserve">
<style type="text/css">
	.st0{fill:#D83F22;}
	.st1{fill:#005F86;}
</style>
<g>
	<g>
		<g>
			<g>
				<path class="st0" d="M129.22,58.19v-1.26c-27.51,0-49.81-22.3-49.81-49.81h-1.26c0,27.51-22.3,49.81-49.81,49.81v1.26
					c27.51,0,49.81,22.3,49.81,49.81h1.26C79.4,80.49,101.71,58.19,129.22,58.19z"/>
			</g>
			<g>
				<path class="st1" d="M230.1,58.19v-1.26c-27.51,0-49.81-22.3-49.81-49.81h-1.26c0,27.51-22.3,49.81-49.81,49.81v1.26
					c27.51,0,49.81,22.3,49.81,49.81h1.26C180.29,80.49,202.59,58.19,230.1,58.19z"/>
			</g>
			<g>
				<path class="st1" d="M129.22,159.07v-1.26c-27.51,0-49.81-22.3-49.81-49.81h-1.26c0,27.51-22.3,49.81-49.81,49.81v1.26
					c27.51,0,49.81,22.3,49.81,49.81h1.26C79.4,181.37,101.71,159.07,129.22,159.07z"/>
			</g>
			<g>
				<path class="st1" d="M230.1,159.07v-1.26c-27.51,0-49.81-22.3-49.81-49.81h-1.26c0,27.51-22.3,49.81-49.81,49.81v1.26
					c27.51,0,49.81,22.3,49.81,49.81h1.26C180.29,181.37,202.59,159.07,230.1,159.07z"/>
			</g>
		</g>
		<g>
			<g>
				<path class="st1" d="M282.15,190.31v-29.49h-9.96v-3.08h23.32v3.08h-10v29.49H282.15z"/>
				<path class="st1" d="M302.93,190.31v-32.57h3.32v14.43h18.34v-14.43h3.32v32.57h-3.32v-15.06h-18.34v15.06H302.93z"/>
				<path class="st1" d="M338.66,190.31v-32.57h18.97v3.04h-15.61v11.42h13.12v3h-13.12v12.06h16.17v3.04H338.66z"/>
				<path class="st1" d="M389.33,190.31h-4.39l-12.21-13H370v13h-3.32v-32.57h8.78c7.04,0,11.38,4.35,11.38,9.8
					c0,5.06-3.95,9.13-10.04,9.69L389.33,190.31z M370,160.74v13.6h5.46c5.1,0,7.98-3.16,7.98-6.8c0-3.72-2.85-6.8-7.98-6.8H370z"/>
				<path class="st1" d="M420.52,190.31l-3.36-7.35h-17.31l-3.36,7.35h-3.68l15.69-33.48l15.73,33.48H420.52z M401.23,179.95h14.55
					l-7.27-15.97L401.23,179.95z"/>
				<path class="st1" d="M431.34,190.31v-32.57h9.37c7.27,0,11.58,4.47,11.58,9.96c0,5.57-4.43,10.04-11.58,10.04h-6.05v12.57
					H431.34z M434.66,174.7h6.05c5.3,0,8.18-3.24,8.18-7c0-3.76-2.85-6.92-8.18-6.92h-6.05V174.7z"/>
				<path class="st1" d="M461.5,190.31v-32.57h18.97v3.04h-15.61v11.42h13.12v3h-13.12v12.06h16.17v3.04H461.5z"/>
				<path class="st1" d="M488.89,177.9v-20.16h3.32v20.16c0,6.84,3.52,9.96,9.05,9.96c5.57,0,9.17-3.08,9.17-9.96v-20.16h3.28v20.2
					c0,8.54-5.14,13.01-12.45,13.01C493.91,190.94,488.89,186.48,488.89,177.9z"/>
				<path class="st1" d="M530.46,190.31v-29.49h-9.96v-3.08h23.32v3.08h-10v29.49H530.46z"/>
				<path class="st1" d="M551.25,190.31v-32.57h3.32v32.57H551.25z"/>
				<path class="st1" d="M563.86,174.03c0-9.45,7.67-16.92,17.16-16.92c4.11,0,7.79,1.38,10.4,3.32v4.03
					c-2.65-2.65-6.48-4.27-10.4-4.27c-7.75,0-13.75,6.21-13.75,13.84c0,7.63,6.01,13.83,13.75,13.83c4.03,0,7.79-1.7,10.4-4.27v4.07
					c-2.69,1.94-6.28,3.32-10.43,3.32C571.53,190.98,563.86,183.47,563.86,174.03z"/>
				<path class="st1" d="M599.11,187.54v-3.91c2.49,2.17,6.01,4.23,10.12,4.23c3.95,0,7.04-2.25,7.04-6.01
					c0-3.91-2.92-5.42-7.51-6.96c-4.59-1.5-9.33-3.6-9.33-9.53c0-5.49,4.94-8.3,9.8-8.3c4.43,0,7.43,1.5,9.21,2.57v3.95
					c-2.77-2.18-5.69-3.44-9.21-3.44c-3.44,0-6.36,1.7-6.36,5.22c0,3.64,2.69,4.98,7.27,6.52c4.55,1.54,9.53,3.68,9.53,9.92
					c0,5.85-5.3,9.17-10.44,9.17C604.69,190.98,601.13,188.97,599.11,187.54z"/>
			</g>
		</g>
		<g>
			<g>
				<path class="st0" d="M272.19,127.82l16.54-104.31l40.12,76.41l40-76.41l16.42,104.31h-15.92l-8.77-58.88l-31.97,61.23
					l-31.6-61.23l-8.89,58.88H272.19z"/>
				<path class="st0" d="M398.44,99.98V56.58h14.96v43.41c0,10.38,5.71,16,14.18,16c8.39,0,14.35-5.53,14.35-16V56.58h14.61v43.41
					c0,18.5-12.8,29.48-29.22,29.48C410.81,129.47,398.44,118.75,398.44,99.98z"/>
				<g>
					<path class="st0" d="M520.01,56.58v22.07c0,6.14,0.09,11.59,0.17,17.38l-47.12-41.76v73.56h14.61v-22.35
						c0-5.79-0.08-11.5-0.17-17.29l47.04,41.86V56.58H520.01z"/>
					<polygon class="st0" points="582.55,54.27 546.71,127.82 563.14,127.82 582.42,86.12 601.7,127.82 618.39,127.82 					"/>
				</g>
			</g>
		</g>
	</g>
</g>
</svg>
